<?xml version="1.0" encoding="UTF-8" standalone="no"?><svg xmlns="http://www.w3.org/2000/svg" xmlns:xlink="http://www.w3.org/1999/xlink" contentScriptType="application/ecmascript" contentStyleType="text/css" height="311px" preserveAspectRatio="none" style="width:1832px;height:311px;" version="1.1" viewBox="0 0 1832 311" width="1832px" zoomAndPan="magnify"><defs><filter height="300%" id="fnmahvfsim966" width="300%" x="-1" y="-1"><feGaussianBlur result="blurOut" stdDeviation="2.0"/><feColorMatrix in="blurOut" result="blurOut2" type="matrix" values="0 0 0 0 0 0 0 0 0 0 0 0 0 0 0 0 0 0 .4 0"/><feOffset dx="4.0" dy="4.0" in="blurOut2" result="blurOut3"/><feBlend in="SourceGraphic" in2="blurOut3" mode="normal"/></filter></defs><g><!--MD5=[12913d7524eb4463757c772e2012e0c5]
entity authority-agent--><rect fill="#FEFECE" filter="url(#fnmahvfsim966)" height="46.2969" style="stroke: #A80036; stroke-width: 1.5;" width="145" x="600.5" y="131"/><rect fill="#FEFECE" height="10" style="stroke: #A80036; stroke-width: 1.5;" width="15" x="725.5" y="136"/><rect fill="#FEFECE" height="2" style="stroke: #A80036; stroke-width: 1.5;" width="4" x="723.5" y="138"/><rect fill="#FEFECE" height="2" style="stroke: #A80036; stroke-width: 1.5;" width="4" x="723.5" y="142"/><text fill="#000000" font-family="sans-serif" font-size="14" lengthAdjust="spacingAndGlyphs" textLength="105" x="615.5" y="163.9951">authority-agent</text><!--MD5=[f13bb437af106181fb506dfdb28991ec]
entity authority-business-logic--><rect fill="#FEFECE" filter="url(#fnmahvfsim966)" height="46.2969" style="stroke: #A80036; stroke-width: 1.5;" width="205" x="570.5" y="8"/><rect fill="#FEFECE" height="10" style="stroke: #A80036; stroke-width: 1.5;" width="15" x="755.5" y="13"/><rect fill="#FEFECE" height="2" style="stroke: #A80036; stroke-width: 1.5;" width="4" x="753.5" y="15"/><rect fill="#FEFECE" height="2" style="stroke: #A80036; stroke-width: 1.5;" width="4" x="753.5" y="19"/><text fill="#000000" font-family="sans-serif" font-size="14" lengthAdjust="spacingAndGlyphs" textLength="165" x="585.5" y="40.9951">authority-business-logic</text><!--MD5=[3694f8b99c66459be7f82db9208491a3]
entity authority-wallet-db--><rect fill="#FEFECE" filter="url(#fnmahvfsim966)" height="46.2969" style="stroke: #A80036; stroke-width: 1.5;" width="167" x="589.5" y="254"/><rect fill="#FEFECE" height="10" style="stroke: #A80036; stroke-width: 1.5;" width="15" x="736.5" y="259"/><rect fill="#FEFECE" height="2" style="stroke: #A80036; stroke-width: 1.5;" width="4" x="734.5" y="261"/><rect fill="#FEFECE" height="2" style="stroke: #A80036; stroke-width: 1.5;" width="4" x="734.5" y="265"/><text fill="#000000" font-family="sans-serif" font-size="14" lengthAdjust="spacingAndGlyphs" textLength="127" x="604.5" y="286.9951">authority-wallet-db</text><!--MD5=[5d25aea3f72985dd4ae54b03f37f0b77]
entity city-agent--><rect fill="#FEFECE" filter="url(#fnmahvfsim966)" height="46.2969" style="stroke: #A80036; stroke-width: 1.5;" width="108" x="840" y="131"/><rect fill="#FEFECE" height="10" style="stroke: #A80036; stroke-width: 1.5;" width="15" x="928" y="136"/><rect fill="#FEFECE" height="2" style="stroke: #A80036; stroke-width: 1.5;" width="4" x="926" y="138"/><rect fill="#FEFECE" height="2" style="stroke: #A80036; stroke-width: 1.5;" width="4" x="926" y="142"/><text fill="#000000" font-family="sans-serif" font-size="14" lengthAdjust="spacingAndGlyphs" textLength="68" x="855" y="163.9951">city-agent</text><!--MD5=[c9dd1670bc4d09eca8885b788a2e6c5b]
entity city-business-logic--><rect fill="#FEFECE" filter="url(#fnmahvfsim966)" height="46.2969" style="stroke: #A80036; stroke-width: 1.5;" width="168" x="810" y="8"/><rect fill="#FEFECE" height="10" style="stroke: #A80036; stroke-width: 1.5;" width="15" x="958" y="13"/><rect fill="#FEFECE" height="2" style="stroke: #A80036; stroke-width: 1.5;" width="4" x="956" y="15"/><rect fill="#FEFECE" height="2" style="stroke: #A80036; stroke-width: 1.5;" width="4" x="956" y="19"/><text fill="#000000" font-family="sans-serif" font-size="14" lengthAdjust="spacingAndGlyphs" textLength="128" x="825" y="40.9951">city-business-logic</text><!--MD5=[684325d90a9539f0dbfa548700bbdb6f]
entity city-wallet-db--><rect fill="#FEFECE" filter="url(#fnmahvfsim966)" height="46.2969" style="stroke: #A80036; stroke-width: 1.5;" width="130" x="829" y="254"/><rect fill="#FEFECE" height="10" style="stroke: #A80036; stroke-width: 1.5;" width="15" x="939" y="259"/><rect fill="#FEFECE" height="2" style="stroke: #A80036; stroke-width: 1.5;" width="4" x="937" y="261"/><rect fill="#FEFECE" height="2" style="stroke: #A80036; stroke-width: 1.5;" width="4" x="937" y="265"/><text fill="#000000" font-family="sans-serif" font-size="14" lengthAdjust="spacingAndGlyphs" textLength="90" x="844" y="286.9951">city-wallet-db</text><!--MD5=[6294428189dfa6d06707b35b9ea408ea]
entity manufacturer1-agent--><rect fill="#FEFECE" filter="url(#fnmahvfsim966)" height="46.2969" style="stroke: #A80036; stroke-width: 1.5;" width="186" x="1043" y="131"/><rect fill="#FEFECE" height="10" style="stroke: #A80036; stroke-width: 1.5;" width="15" x="1209" y="136"/><rect fill="#FEFECE" height="2" style="stroke: #A80036; stroke-width: 1.5;" width="4" x="1207" y="138"/><rect fill="#FEFECE" height="2" style="stroke: #A80036; stroke-width: 1.5;" width="4" x="1207" y="142"/><text fill="#000000" font-family="sans-serif" font-size="14" lengthAdjust="spacingAndGlyphs" textLength="146" x="1058" y="163.9951">manufacturer1-agent</text><!--MD5=[98341fa551cc39f5d4ab4c71795e4c9e]
entity manufacturer1-business-logic--><rect fill="#FEFECE" filter="url(#fnmahvfsim966)" height="46.2969" style="stroke: #A80036; stroke-width: 1.5;" width="246" x="1013" y="8"/><rect fill="#FEFECE" height="10" style="stroke: #A80036; stroke-width: 1.5;" width="15" x="1239" y="13"/><rect fill="#FEFECE" height="2" style="stroke: #A80036; stroke-width: 1.5;" width="4" x="1237" y="15"/><rect fill="#FEFECE" height="2" style="stroke: #A80036; stroke-width: 1.5;" width="4" x="1237" y="19"/><text fill="#000000" font-family="sans-serif" font-size="14" lengthAdjust="spacingAndGlyphs" textLength="206" x="1028" y="40.9951">manufacturer1-business-logic</text><!--MD5=[ccec216042d2a06bd4220ea6a3ba6fe6]
entity manufacturer1-wallet-db--><rect fill="#FEFECE" filter="url(#fnmahvfsim966)" height="46.2969" style="stroke: #A80036; stroke-width: 1.5;" width="208" x="1032" y="254"/><rect fill="#FEFECE" height="10" style="stroke: #A80036; stroke-width: 1.5;" width="15" x="1220" y="259"/><rect fill="#FEFECE" height="2" style="stroke: #A80036; stroke-width: 1.5;" width="4" x="1218" y="261"/><rect fill="#FEFECE" height="2" style="stroke: #A80036; stroke-width: 1.5;" width="4" x="1218" y="265"/><text fill="#000000" font-family="sans-serif" font-size="14" lengthAdjust="spacingAndGlyphs" textLength="168" x="1047" y="286.9951">manufacturer1-wallet-db</text><!--MD5=[a19f91b5189e569bcd96523315a70799]
entity manufacturer2-agent--><rect fill="#FEFECE" filter="url(#fnmahvfsim966)" height="46.2969" style="stroke: #A80036; stroke-width: 1.5;" width="186" x="1324" y="131"/><rect fill="#FEFECE" height="10" style="stroke: #A80036; stroke-width: 1.5;" width="15" x="1490" y="136"/><rect fill="#FEFECE" height="2" style="stroke: #A80036; stroke-width: 1.5;" width="4" x="1488" y="138"/><rect fill="#FEFECE" height="2" style="stroke: #A80036; stroke-width: 1.5;" width="4" x="1488" y="142"/><text fill="#000000" font-family="sans-serif" font-size="14" lengthAdjust="spacingAndGlyphs" textLength="146" x="1339" y="163.9951">manufacturer2-agent</text><!--MD5=[d63632feb68f91deb2d82fa97b8eb569]
entity manufacturer2-business-logic--><rect fill="#FEFECE" filter="url(#fnmahvfsim966)" height="46.2969" style="stroke: #A80036; stroke-width: 1.5;" width="246" x="1294" y="8"/><rect fill="#FEFECE" height="10" style="stroke: #A80036; stroke-width: 1.5;" width="15" x="1520" y="13"/><rect fill="#FEFECE" height="2" style="stroke: #A80036; stroke-width: 1.5;" width="4" x="1518" y="15"/><rect fill="#FEFECE" height="2" style="stroke: #A80036; stroke-width: 1.5;" width="4" x="1518" y="19"/><text fill="#000000" font-family="sans-serif" font-size="14" lengthAdjust="spacingAndGlyphs" textLength="206" x="1309" y="40.9951">manufacturer2-business-logic</text><!--MD5=[c4b74ef12c0055dc0d717ac3e06dd044]
entity manufacturer2-wallet-db--><rect fill="#FEFECE" filter="url(#fnmahvfsim966)" height="46.2969" style="stroke: #A80036; stroke-width: 1.5;" width="208" x="1313" y="254"/><rect fill="#FEFECE" height="10" style="stroke: #A80036; stroke-width: 1.5;" width="15" x="1501" y="259"/><rect fill="#FEFECE" height="2" style="stroke: #A80036; stroke-width: 1.5;" width="4" x="1499" y="261"/><rect fill="#FEFECE" height="2" style="stroke: #A80036; stroke-width: 1.5;" width="4" x="1499" y="265"/><text fill="#000000" font-family="sans-serif" font-size="14" lengthAdjust="spacingAndGlyphs" textLength="168" x="1328" y="286.9951">manufacturer2-wallet-db</text><!--MD5=[838faf2662aab8f5f03a4eab912865ba]
entity manufacturer3-agent--><rect fill="#FEFECE" filter="url(#fnmahvfsim966)" height="46.2969" style="stroke: #A80036; stroke-width: 1.5;" width="186" x="1605" y="131"/><rect fill="#FEFECE" height="10" style="stroke: #A80036; stroke-width: 1.5;" width="15" x="1771" y="136"/><rect fill="#FEFECE" height="2" style="stroke: #A80036; stroke-width: 1.5;" width="4" x="1769" y="138"/><rect fill="#FEFECE" height="2" style="stroke: #A80036; stroke-width: 1.5;" width="4" x="1769" y="142"/><text fill="#000000" font-family="sans-serif" font-size="14" lengthAdjust="spacingAndGlyphs" textLength="146" x="1620" y="163.9951">manufacturer3-agent</text><!--MD5=[6c6472f712da84caad1e464fef06467e]
entity manufacturer3-business-logic--><rect fill="#FEFECE" filter="url(#fnmahvfsim966)" height="46.2969" style="stroke: #A80036; stroke-width: 1.5;" width="246" x="1575" y="8"/><rect fill="#FEFECE" height="10" style="stroke: #A80036; stroke-width: 1.5;" width="15" x="1801" y="13"/><rect fill="#FEFECE" height="2" style="stroke: #A80036; stroke-width: 1.5;" width="4" x="1799" y="15"/><rect fill="#FEFECE" height="2" style="stroke: #A80036; stroke-width: 1.5;" width="4" x="1799" y="19"/><text fill="#000000" font-family="sans-serif" font-size="14" lengthAdjust="spacingAndGlyphs" textLength="206" x="1590" y="40.9951">manufacturer3-business-logic</text><!--MD5=[0902e7df079de42682224634b989921e]
entity manufacturer3-wallet-db--><rect fill="#FEFECE" filter="url(#fnmahvfsim966)" height="46.2969" style="stroke: #A80036; stroke-width: 1.5;" width="208" x="1594" y="254"/><rect fill="#FEFECE" height="10" style="stroke: #A80036; stroke-width: 1.5;" width="15" x="1782" y="259"/><rect fill="#FEFECE" height="2" style="stroke: #A80036; stroke-width: 1.5;" width="4" x="1780" y="261"/><rect fill="#FEFECE" height="2" style="stroke: #A80036; stroke-width: 1.5;" width="4" x="1780" y="265"/><text fill="#000000" font-family="sans-serif" font-size="14" lengthAdjust="spacingAndGlyphs" textLength="168" x="1609" y="286.9951">manufacturer3-wallet-db</text><!--MD5=[ea4a5bdd3847784faba7468336d34779]
entity ngrok-authority--><rect fill="#FEFECE" filter="url(#fnmahvfsim966)" height="46.2969" style="stroke: #A80036; stroke-width: 1.5;" width="145" x="26.5" y="8"/><rect fill="#FEFECE" height="10" style="stroke: #A80036; stroke-width: 1.5;" width="15" x="151.5" y="13"/><rect fill="#FEFECE" height="2" style="stroke: #A80036; stroke-width: 1.5;" width="4" x="149.5" y="15"/><rect fill="#FEFECE" height="2" style="stroke: #A80036; stroke-width: 1.5;" width="4" x="149.5" y="19"/><text fill="#000000" font-family="sans-serif" font-size="14" lengthAdjust="spacingAndGlyphs" textLength="105" x="41.5" y="40.9951">ngrok-authority</text><!--MD5=[781a6ae477e93ebf009a309b5be6679e]
entity ngrok-city--><rect fill="#FEFECE" filter="url(#fnmahvfsim966)" height="46.2969" style="stroke: #A80036; stroke-width: 1.5;" width="108" x="207" y="8"/><rect fill="#FEFECE" height="10" style="stroke: #A80036; stroke-width: 1.5;" width="15" x="295" y="13"/><rect fill="#FEFECE" height="2" style="stroke: #A80036; stroke-width: 1.5;" width="4" x="293" y="15"/><rect fill="#FEFECE" height="2" style="stroke: #A80036; stroke-width: 1.5;" width="4" x="293" y="19"/><text fill="#000000" font-family="sans-serif" font-size="14" lengthAdjust="spacingAndGlyphs" textLength="68" x="222" y="40.9951">ngrok-city</text><!--MD5=[2c90f6f78f7a2a210da7fa251af9e86f]
entity ngrok-manufacturer1--><rect fill="#FEFECE" filter="url(#fnmahvfsim966)" height="46.2969" style="stroke: #A80036; stroke-width: 1.5;" width="186" x="350" y="8"/><rect fill="#FEFECE" height="10" style="stroke: #A80036; stroke-width: 1.5;" width="15" x="516" y="13"/><rect fill="#FEFECE" height="2" style="stroke: #A80036; stroke-width: 1.5;" width="4" x="514" y="15"/><rect fill="#FEFECE" height="2" style="stroke: #A80036; stroke-width: 1.5;" width="4" x="514" y="19"/><text fill="#000000" font-family="sans-serif" font-size="14" lengthAdjust="spacingAndGlyphs" textLength="146" x="365" y="40.9951">ngrok-manufacturer1</text><!--MD5=[0ae7110b83bca0593bd97f7a39bfbd57]
entity ngrok-manufacturer2--><rect fill="#FEFECE" filter="url(#fnmahvfsim966)" height="46.2969" style="stroke: #A80036; stroke-width: 1.5;" width="186" x="6" y="131"/><rect fill="#FEFECE" height="10" style="stroke: #A80036; stroke-width: 1.5;" width="15" x="172" y="136"/><rect fill="#FEFECE" height="2" style="stroke: #A80036; stroke-width: 1.5;" width="4" x="170" y="138"/><rect fill="#FEFECE" height="2" style="stroke: #A80036; stroke-width: 1.5;" width="4" x="170" y="142"/><text fill="#000000" font-family="sans-serif" font-size="14" lengthAdjust="spacingAndGlyphs" textLength="146" x="21" y="163.9951">ngrok-manufacturer2</text><!--MD5=[a09e4de4639950d77a8c24becc37938e]
entity ngrok-manufacturer3--><rect fill="#FEFECE" filter="url(#fnmahvfsim966)" height="46.2969" style="stroke: #A80036; stroke-width: 1.5;" width="186" x="227" y="131"/><rect fill="#FEFECE" height="10" style="stroke: #A80036; stroke-width: 1.5;" width="15" x="393" y="136"/><rect fill="#FEFECE" height="2" style="stroke: #A80036; stroke-width: 1.5;" width="4" x="391" y="138"/><rect fill="#FEFECE" height="2" style="stroke: #A80036; stroke-width: 1.5;" width="4" x="391" y="142"/><text fill="#000000" font-family="sans-serif" font-size="14" lengthAdjust="spacingAndGlyphs" textLength="146" x="242" y="163.9951">ngrok-manufacturer3</text><!--MD5=[5d95f41521340633acda9371dd36c196]
link authority-agent to authority-wallet-db--><path d="M673,177.1354 C673,197.4937 673,227.1907 673,248.908 " fill="none" id="authority-agent-&gt;authority-wallet-db" style="stroke: #A80036; stroke-width: 1.0; stroke-dasharray: 7.0,7.0;"/><polygon fill="#A80036" points="673,253.9684,677,244.9684,673,248.9684,669,244.9684,673,253.9684" style="stroke: #A80036; stroke-width: 1.0;"/><text fill="#000000" font-family="sans-serif" font-size="13" lengthAdjust="spacingAndGlyphs" textLength="75" x="674" y="220.0669">depends on</text><!--MD5=[d7622b272407b8d850f4ae180268c0c2]
link authority-business-logic to authority-agent--><path d="M673,54.1354 C673,74.4937 673,104.1907 673,125.908 " fill="none" id="authority-business-logic-&gt;authority-agent" style="stroke: #A80036; stroke-width: 1.0; stroke-dasharray: 7.0,7.0;"/><polygon fill="#A80036" points="673,130.9684,677,121.9684,673,125.9684,669,121.9684,673,130.9684" style="stroke: #A80036; stroke-width: 1.0;"/><text fill="#000000" font-family="sans-serif" font-size="13" lengthAdjust="spacingAndGlyphs" textLength="75" x="674" y="97.0669">depends on</text><!--MD5=[e91753b59c25230c33bf9bfabb27982f]
link city-agent to city-wallet-db--><path d="M894,177.1354 C894,197.4937 894,227.1907 894,248.908 " fill="none" id="city-agent-&gt;city-wallet-db" style="stroke: #A80036; stroke-width: 1.0; stroke-dasharray: 7.0,7.0;"/><polygon fill="#A80036" points="894,253.9684,898,244.9684,894,248.9684,890,244.9684,894,253.9684" style="stroke: #A80036; stroke-width: 1.0;"/><text fill="#000000" font-family="sans-serif" font-size="13" lengthAdjust="spacingAndGlyphs" textLength="75" x="895" y="220.0669">depends on</text><!--MD5=[26158fcf9cec8e03b6dcf3c141847150]
link city-business-logic to city-agent--><path d="M894,54.1354 C894,74.4937 894,104.1907 894,125.908 " fill="none" id="city-business-logic-&gt;city-agent" style="stroke: #A80036; stroke-width: 1.0; stroke-dasharray: 7.0,7.0;"/><polygon fill="#A80036" points="894,130.9684,898,121.9684,894,125.9684,890,121.9684,894,130.9684" style="stroke: #A80036; stroke-width: 1.0;"/><text fill="#000000" font-family="sans-serif" font-size="13" lengthAdjust="spacingAndGlyphs" textLength="75" x="895" y="97.0669">depends on</text><!--MD5=[6b82a04aa8692dba8c510c9ad772f7ed]
link manufacturer1-agent to manufacturer1-wallet-db--><path d="M1136,177.1354 C1136,197.4937 1136,227.1907 1136,248.908 " fill="none" id="manufacturer1-agent-&gt;manufacturer1-wallet-db" style="stroke: #A80036; stroke-width: 1.0; stroke-dasharray: 7.0,7.0;"/><polygon fill="#A80036" points="1136,253.9684,1140,244.9684,1136,248.9684,1132,244.9684,1136,253.9684" style="stroke: #A80036; stroke-width: 1.0;"/><text fill="#000000" font-family="sans-serif" font-size="13" lengthAdjust="spacingAndGlyphs" textLength="75" x="1137" y="220.0669">depends on</text><!--MD5=[d8491dff2431c0dbf6f72b0c4dbb7b40]
link manufacturer1-business-logic to manufacturer1-agent--><path d="M1136,54.1354 C1136,74.4937 1136,104.1907 1136,125.908 " fill="none" id="manufacturer1-business-logic-&gt;manufacturer1-agent" style="stroke: #A80036; stroke-width: 1.0; stroke-dasharray: 7.0,7.0;"/><polygon fill="#A80036" points="1136,130.9684,1140,121.9684,1136,125.9684,1132,121.9684,1136,130.9684" style="stroke: #A80036; stroke-width: 1.0;"/><text fill="#000000" font-family="sans-serif" font-size="13" lengthAdjust="spacingAndGlyphs" textLength="75" x="1137" y="97.0669">depends on</text><!--MD5=[36fb4484120d174c54a4a13115c08c69]
link manufacturer2-agent to manufacturer2-wallet-db--><path d="M1417,177.1354 C1417,197.4937 1417,227.1907 1417,248.908 " fill="none" id="manufacturer2-agent-&gt;manufacturer2-wallet-db" style="stroke: #A80036; stroke-width: 1.0; stroke-dasharray: 7.0,7.0;"/><polygon fill="#A80036" points="1417,253.9684,1421,244.9684,1417,248.9684,1413,244.9684,1417,253.9684" style="stroke: #A80036; stroke-width: 1.0;"/><text fill="#000000" font-family="sans-serif" font-size="13" lengthAdjust="spacingAndGlyphs" textLength="75" x="1418" y="220.0669">depends on</text><!--MD5=[08731cc623b73c45e44ae324d145f51e]
link manufacturer2-business-logic to manufacturer2-agent--><path d="M1417,54.1354 C1417,74.4937 1417,104.1907 1417,125.908 " fill="none" id="manufacturer2-business-logic-&gt;manufacturer2-agent" style="stroke: #A80036; stroke-width: 1.0; stroke-dasharray: 7.0,7.0;"/><polygon fill="#A80036" points="1417,130.9684,1421,121.9684,1417,125.9684,1413,121.9684,1417,130.9684" style="stroke: #A80036; stroke-width: 1.0;"/><text fill="#000000" font-family="sans-serif" font-size="13" lengthAdjust="spacingAndGlyphs" textLength="75" x="1418" y="97.0669">depends on</text><!--MD5=[5552cd32cf23fdb2bb9d08f1cf05dc77]
link manufacturer3-agent to manufacturer3-wallet-db--><path d="M1698,177.1354 C1698,197.4937 1698,227.1907 1698,248.908 " fill="none" id="manufacturer3-agent-&gt;manufacturer3-wallet-db" style="stroke: #A80036; stroke-width: 1.0; stroke-dasharray: 7.0,7.0;"/><polygon fill="#A80036" points="1698,253.9684,1702,244.9684,1698,248.9684,1694,244.9684,1698,253.9684" style="stroke: #A80036; stroke-width: 1.0;"/><text fill="#000000" font-family="sans-serif" font-size="13" lengthAdjust="spacingAndGlyphs" textLength="75" x="1699" y="220.0669">depends on</text><!--MD5=[706860b712f77667864e333c65bad471]
link manufacturer3-business-logic to manufacturer3-agent--><path d="M1698,54.1354 C1698,74.4937 1698,104.1907 1698,125.908 " fill="none" id="manufacturer3-business-logic-&gt;manufacturer3-agent" style="stroke: #A80036; stroke-width: 1.0; stroke-dasharray: 7.0,7.0;"/><polygon fill="#A80036" points="1698,130.9684,1702,121.9684,1698,125.9684,1694,121.9684,1698,130.9684" style="stroke: #A80036; stroke-width: 1.0;"/><text fill="#000000" font-family="sans-serif" font-size="13" lengthAdjust="spacingAndGlyphs" textLength="75" x="1699" y="97.0669">depends on</text><!--MD5=[e4b7e5ecae8d84ba97779edfb2940165]
link ngrok-authority to ngrok-city--><!--MD5=[5799aa51832dcc4579648af369783ca5]
link ngrok-city to ngrok-manufacturer1--><!--MD5=[6244f68d79610a6032cb15a79bd7d2b7]
link ngrok-authority to ngrok-manufacturer2--><!--MD5=[2f00c6c6410fdbf5b0d998e1c6f63d38]
link ngrok-manufacturer2 to ngrok-manufacturer3--><!--MD5=[7ddc4d4a33ab6a91696e6a9f03fa4ec1]
@startuml
skinparam componentStyle uml2
[authority-agent]
[authority-business-logic]
[authority-wallet-db]
[city-agent]
[city-business-logic]
[city-wallet-db]
[manufacturer1-agent]
[manufacturer1-business-logic]
[manufacturer1-wallet-db]
[manufacturer2-agent]
[manufacturer2-business-logic]
[manufacturer2-wallet-db]
[manufacturer3-agent]
[manufacturer3-business-logic]
[manufacturer3-wallet-db]
[ngrok-authority]
[ngrok-city]
[ngrok-manufacturer1]
[ngrok-manufacturer2]
[ngrok-manufacturer3]
[authority-agent] ..> [authority-wallet-db] : depends on
[authority-business-logic] ..> [authority-agent] : depends on
[city-agent] ..> [city-wallet-db] : depends on
[city-business-logic] ..> [city-agent] : depends on
[manufacturer1-agent] ..> [manufacturer1-wallet-db] : depends on
[manufacturer1-business-logic] ..> [manufacturer1-agent] : depends on
[manufacturer2-agent] ..> [manufacturer2-wallet-db] : depends on
[manufacturer2-business-logic] ..> [manufacturer2-agent] : depends on
[manufacturer3-agent] ..> [manufacturer3-wallet-db] : depends on
[manufacturer3-business-logic] ..> [manufacturer3-agent] : depends on

@enduml

PlantUML version 1.2020.06(Sun Apr 05 12:38:32 GMT 2020)
(GPL source distribution)
Java Runtime: OpenJDK Runtime Environment
JVM: OpenJDK 64-Bit Server VM
Java Version: 14-ea+33
Operating System: Linux
Default Encoding: UTF-8
Language: en
Country: US
--></g></svg>